#!OML:ASF E:\CV Data\Top Level 1\Subject 1\Session 1\player.ASF
:FULLY-SPECIFIED
:DEGREES
477
root 5.96239 15.5532 -20.447 -5.02817 6.4985 -3.40033
lowerback 15.1787 1.00857 5.21705
upperback -0.275614 2.59434 3.5134
thorax -8.78398 1.1058 0.248176
lowerneck -12.1111 -10.4041 -15.4193
upperneck -1.1725 -12.1008 11.7403
head 3.23465 -5.63357 5.13749
rclavicle -2.36305e-014 -3.4191e-014
rhumerus 61.7799 5.33021 -51.7548
rradius 92.5043
rwrist 28.0325
rhand -54.2473 38.7484
rfingers 7.12502
rthumb -26.66 10.6058
lclavicle -2.36305e-014 -3.4191e-014
lhumerus 70.887 -9.77741 64.8602
lradius 78.8093
lwrist 38.9792
lhand -30.4855 17.0637
lfingers 7.12502
lthumb -3.78629 47.0098
rfemur -22.0907 -11.0021 17.2799
rtibia 68.0336
rfoot -34.018 -15.8933
rtoes -13.64
lfemur -24.8212 6.04504 -11.5451
ltibia 64.6888
lfoot -31.2651 -0.283688
ltoes -11.9073
478
root 5.9659 15.5481 -20.4164 -5.09057 6.54453 -3.40214
lowerback 15.0791 1.05498 5.19291
upperback -0.417075 2.64931 3.47333
thorax -8.87957 1.12881 0.208414
lowerneck -12.0689 -10.4608 -15.468
upperneck -1.04216 -12.1844 11.7343
head 3.28056 -5.67661 5.13222
rclavicle 2.6662e-014 3.97569e-014
rhumerus 62.4611 4.7243 -51.7254
rradius 92.5523
rwrist 28.3032
rhand -54.3457 39.2422
rfingers 7.12502
rthumb -26.7541 11.114
lclavicle 2.6662e-014 3.97569e-014
lhumerus 71.671 -9.28334 64.6461
lradius 78.7686
lwrist 39.0908
lhand -30.1899 16.6864
lfingers 7.12502
lthumb -3.50088 46.6374
rfemur -21.9089 -11.0602 17.2202
rtibia 68.1111
rfoot -34.0969 -15.8503
rtoes -13.7926
lfemur -24.6366 5.90003 -11.548
ltibia 64.7122
lfoot -31.374 -0.108196
ltoes -11.9588
479
root 5.96938 15.5429 -20.3865 -5.15261 6.58063 -3.4034
lowerback 14.9996 1.09981 5.17812
upperback -0.563113 2.70506 3.42572
thorax -8.99079 1.15109 0.154708
lowerneck -12.0243 -10.5238 -15.526
upperneck -0.851257 -12.28 11.7377
head 3.34735 -5.72592 5.12847
rclavicle -3.75827e-014 4.77083e-015
rhumerus 63.0873 4.1523 -51.7095
rradius 92.6154
rwrist 28.553
rhand -54.4057 39.6565
rfingers 7.12502
rthumb -26.8116 11.537
lclavicle -3.75827e-014 4.77083e-015
lhumerus 72.3886 -8.819 64.4474
lradius 78.7331
lwrist 39.1655
lhand -29.8978 16.3045
lfingers 7.12502
lthumb -3.21879 46.26
rfemur -21.7337 -11.1042 17.1602
rtibia 68.1888
rfoot -34.1515 -15.8183
rtoes -13.9884
lfemur -24.4542 5.76241 -11.5522
ltibia 64.7373
lfoot -31.4821 0.072272
ltoes -12.019
480
root 5.97268 15.5378 -20.3574 -5.21296 6.62975 -3.41148
lowerback 14.9212 1.1367 5.17306
upperback -0.700429 2.75162 3.3795
thorax -9.09304 1.16876 0.099032
lowerneck -12.0377 -10.6057 -15.6026
upperneck -0.551388 -12.3973 11.7457
head 3.46046 -5.78461 5.12154
rclavicle -4.0844e-016 -1.03368e-014
rhumerus 63.6834 3.60273 -51.697
rradius 92.6936
rwrist 28.7882
rhand -54.4479 40.0503
rfingers 7.12502
rthumb -26.852 11.937
lclavicle -4.0844e-016 -1.03368e-014
lhumerus 73.0636 -8.37045 64.2658
lradius 78.6985
lwrist 39.1846
lhand -29.6204 15.9156
lfingers 7.12502
lthumb -2.95084 45.8749
rfemur -21.5598 -11.1491 17.1069
rtibia 68.2604
rfoot -34.1893 -15.8023
rtoes -14.2361
lfemur -24.2808 5.61569 -11.5506
ltibia 64.7624
lfoot -31.5862 0.254544
ltoes -12.1083
481
root 5.97594 15.5324 -20.3291 -5.27388 6.67219 -3.41796
lowerback 14.8314 1.17324 5.16549
upperback -0.815088 2.79505 3.33552
thorax -9.16417 1.18603 0.0481864
lowerneck -12.1126 -10.7056 -15.6903
upperneck -0.176066 -12.5332 11.7603
head 3.60981 -5.85069 5.1117
rclavicle 1.51884e-014 3.81667e-014
rhumerus 64.2658 3.06963 -51.6868
rradius 92.7817
rwrist 28.9968
rhand -54.4705 40.4357
rfingers 7.12502
rthumb -26.8736 12.3258
lclavicle 1.51884e-014 3.81667e-014
lhumerus 73.7177 -7.92431 64.0938
lradius 78.6612
lwrist 39.1551
lhand -29.3515 15.5447
lfingers 7.12502
lthumb -2.69116 45.5074
rfemur -21.3884 -11.1736 17.0506
rtibia 68.3269
rfoot -34.2175 -15.7961
rtoes -14.5279
lfemur -24.1085 5.47022 -11.551
ltibia 64.789
lfoot -31.6884 0.436751
ltoes -12.1876
482
root 5.97915 15.5268 -20.3016 -5.33175 6.71825 -3.42338
lowerback 14.7248 1.20873 5.1538
upperback -0.912276 2.83422 3.29489
thorax -9.20692 1.20238 0.00468082
lowerneck -12.2254 -10.8117 -15.7831
upperneck 0.221416 -12.6731 11.7849
head 3.77383 -5.91721 5.10298
rclavicle 3.77567e-014 5.00937e-014
rhumerus 64.8245 2.55271 -51.6729
rradius 92.8707
rwrist 29.1893
rhand -54.5081 40.8327
rfingers 7.12502
rthumb -26.9096 12.7283
lclavicle 3.77567e-014 5.00937e-014
lhumerus 74.3478 -7.48775 63.9297
lradius 78.6231
lwrist 39.0838
lhand -29.115 15.1697
lfingers 7.12502
lthumb -2.46273 45.1352
rfemur -21.2194 -11.1871 16.9916
rtibia 68.3867
rfoot -34.251 -15.7945
rtoes -14.8419
lfemur -23.9441 5.32048 -11.5544
ltibia 64.818
lfoot -31.7878 0.622629
ltoes -12.2663
483
root 5.98225 15.5206 -20.2752 -5.3885 6.76506 -3.42263
lowerback 14.6135 1.24484 5.13351
upperback -0.997298 2.8716 3.25496
thorax -9.23389 1.21882 -0.0326359
lowerneck -12.3518 -10.9162 -15.8722
upperneck 0.595553 -12.8084 11.8185
head 3.93325 -5.98043 5.09673
rclavicle -5.34234e-015 0
rhumerus 65.3501 2.05393 -51.6606
rradius 92.9629
rwrist 29.3722
rhand -54.5551 41.2242
rfingers 7.12502
rthumb -26.9545 13.1268
lclavicle -5.34234e-015 0
lhumerus 74.9473 -7.06674 63.7717
lradius 78.5866
lwrist 38.9754
lhand -28.9003 14.8093
lfingers 7.12502
lthumb -2.25541 44.7772
rfemur -21.0524 -11.1875 16.9243
rtibia 68.4447
rfoot -34.3018 -15.788
rtoes -15.1404
lfemur -23.7878 5.16895 -11.566
ltibia 64.8539
lfoot -31.8854 0.810277
ltoes -12.3451
484
root 5.98513 15.5136 -20.2497 -5.4483 6.81143 -3.41622
lowerback 14.4947 1.28039 5.10379
upperback -1.064 2.90504 3.21678
thorax -9.23705 1.23465 -0.0615927
lowerneck -12.4806 -11.0092 -15.9527
upperneck 0.881875 -12.9243 11.8687
head 4.0649 -6.03262 5.09832
rclavicle -1.28713e-014 7.95139e-016
rhumerus 65.8529 1.57064 -51.6504
rradius 93.0554
rwrist 29.5379
rhand -54.6119 41.6217
rfingers 7.12502
rthumb -27.0089 13.5327
lclavicle -1.28713e-014 7.95139e-016
lhumerus 75.5206 -6.65481 63.6226
lradius 78.5617
lwrist 38.8392
lhand -28.6959 14.4897
lfingers 7.12502
lthumb -2.05804 44.4595
rfemur -20.8828 -11.1804 16.8504
rtibia 68.5022
rfoot -34.3723 -15.7789
rtoes -15.414
lfemur -23.6342 5.02057 -11.5836
ltibia 64.8978
lfoot -31.9846 0.998392
ltoes -12.4306
485
root 5.98748 15.5055 -20.2258 -5.51018 6.86064 -3.40893
lowerback 14.3728 1.31738 5.0738
upperback -1.13038 2.93988 3.17559
thorax -9.23778 1.25115 -0.0937405
lowerneck -12.5402 -11.0834 -16.0204
upperneck 1.0631 -13.022 11.9341
head 4.15207 -6.07688 5.10997
rclavicle -3.47873e-016 -1.03368e-014
rhumerus 66.2971 1.10794 -51.6454
rradius 93.1516
rwrist 29.6752
rhand -54.6742 42.0594
rfingers 7.12502
rthumb -27.0685 13.9796
lclavicle -3.47873e-016 -1.03368e-014
lhumerus 76.0447 -6.28375 63.4852
lradius 78.5597
lwrist 38.7025
lhand -28.5134 14.2062
lfingers 7.12502
lthumb -1.88171 44.1777
rfemur -20.7183 -11.1725 16.7787
rtibia 68.5632
rfoot -34.4597 -15.7694
rtoes -15.6381
lfemur -23.4923 4.87478 -11.6003
ltibia 64.9533
lfoot -32.0855 1.17333
ltoes -12.5035
486
root 5.98948 15.497 -20.2028 -5.58042 6.91298 -3.40009
lowerback 14.2657 1.35211 5.04124
upperback -1.19555 2.97236 3.13367
thorax -9.24576 1.26645 -0.125014
lowerneck -12.5716 -11.1396 -16.0686
upperneck 1.14952 -13.0964 12.0016
head 4.20188 -6.10984 5.12545
rclavicle 6.39093e-014 -1.11319e-014
rhumerus 66.695 0.671053 -51.6452
rradius 93.2435
rwrist 29.8053
rhand -54.7699 42.5172
rfingers 7.12502
rthumb -27.1601 14.4517
lclavicle 6.39093e-014 -1.11319e-014
lhumerus 76.5179 -5.94272 63.3601
lradius 78.5822
lwrist 38.577
lhand -28.3518 13.9413
lfingers 7.12502
lthumb -1.72572 43.9141
rfemur -20.548 -11.1714 16.7082
rtibia 68.6266
rfoot -34.5548 -15.7711
rtoes -15.8392
lfemur -23.3486 4.73233 -11.6162
ltibia 65.0168
lfoot -32.1907 1.33834
ltoes -12.5748
487
root 5.99101 15.4879 -20.1807 -5.6607 6.96843 -3.39961
lowerback 14.1712 1.38338 5.01396
upperback -1.25672 3.0022 3.09466
thorax -9.25654 1.28027 -0.155803
lowerneck -12.5999 -11.193 -16.106
upperneck 1.22586 -13.1676 12.0577
head 4.24617 -6.14167 5.13647
rclavicle 8.64713e-015 2.8625e-014
rhumerus 67.0525 0.259589 -51.6491
rradius 93.3326
rwrist 29.9339
rhand -54.894 42.9556
rfingers 7.12502
rthumb -27.2788 14.9087
lclavicle 8.64713e-015 2.8625e-014
lhumerus 76.9459 -5.62834 63.2473
lradius 78.6306
lwrist 38.4758
lhand -28.2064 13.6971
lfingers 7.12502
lthumb -1.58526 43.6709
rfemur -20.3708 -11.1789 16.6525
rtibia 68.69
rfoot -34.6563 -15.7892
rtoes -16.0007
lfemur -23.203 4.59715 -11.6184
ltibia 65.087
lfoot -32.3029 1.48432
ltoes -12.6389
488
root 5.99122 15.4782 -20.1607 -5.73997 7.04964 -3.41756
lowerback 14.0884 1.40535 4.99152
upperback -1.31514 3.02214 3.06451
thorax -9.27164 1.28929 -0.1779
lowerneck -12.6475 -11.2443 -16.1354
upperneck 1.29488 -13.233 12.1052
head 4.28931 -6.17016 5.14367
rclavicle 5.35476e-014 3.65764e-014
rhumerus 67.3838 -0.135054 -51.6491
rradius 93.4152
rwrist 30.0571
rhand -55.0294 43.3623
rfingers 7.12502
rthumb -27.4083 15.3358
lclavicle 5.35476e-014 3.65764e-014
lhumerus 77.3401 -5.3357 63.146
lradius 78.7008
lwrist 38.3926
lhand -28.0821 13.4875
lfingers 7.12502
lthumb -1.46523 43.4623
rfemur -20.2051 -11.215 16.6294
rtibia 68.7519
rfoot -34.7576 -15.8365
rtoes -16.124
lfemur -23.0843 4.45551 -11.5957
ltibia 65.1634
lfoot -32.4111 1.60016
ltoes -12.7075
489
root 5.99114 15.4686 -20.1411 -5.83152 7.12033 -3.44413
lowerback 14.0255 1.42788 4.97611
upperback -1.37068 3.04561 3.03668
thorax -9.2947 1.29951 -0.202725
lowerneck -12.6885 -11.2854 -16.1523
upperneck 1.31009 -13.2838 12.1541
head 4.31235 -6.19125 5.15269
rclavicle 1.23246e-014 -1.66979e-014
rhumerus 67.6772 -0.502299 -51.6553
rradius 93.4933
rwrist 30.192
rhand -55.1799 43.738
rfingers 7.12502
rthumb -27.5522 15.7344
lclavicle 1.23246e-014 -1.66979e-014
lhumerus 77.6922 -5.07086 63.0507
lradius 78.7851
lwrist 38.3172
lhand -27.9812 13.2504
lfingers 7.12502
lthumb -1.36778 43.2258
rfemur -20.0258 -11.2502 16.6229
rtibia 68.8029
rfoot -34.8645 -15.9038
rtoes -16.2071
lfemur -22.9506 4.33336 -11.5568
ltibia 65.2373
lfoot -32.526 1.69801
ltoes -12.7838
490
root 5.99053 15.4592 -20.1218 -5.9337 7.18547 -3.47704
lowerback 13.9997 1.45011 4.96057
upperback -1.43495 3.07233 3.01208
thorax -9.34882 1.3105 -0.225828
lowerneck -12.7236 -11.3094 -16.1541
upperneck 1.25601 -13.3095 12.204
head 4.30898 -6.19968 5.16472
rclavicle 2.56681e-014 1.51076e-014
rhumerus 67.9227 -0.833476 -51.659
rradius 93.5625
rwrist 30.3204
rhand -55.3431 44.1058
rfingers 7.12502
rthumb -27.7083 16.1272
lclavicle 2.56681e-014 1.51076e-014
lhumerus 77.9929 -4.83798 62.9601
lradius 78.8764
lwrist 38.2407
lhand -27.9046 13.0055
lfingers 7.12502
lthumb -1.29379 42.9813
rfemur -19.8309 -11.2856 16.6325
rtibia 68.8372
rfoot -34.9777 -15.9944
rtoes -16.248
lfemur -22.804 4.2295 -11.5038
ltibia 65.3041
lfoot -32.6439 1.77777
ltoes -12.8733
